<svg width="67.000000" height="56.000000" viewBox="0 0 67 56" fill="none" xmlns="http://www.w3.org/2000/svg" xmlns:xlink="http://www.w3.org/1999/xlink">
	<desc>
			Created with Pixso.
	</desc>
	<defs/>
	<path id="“" d="M26.4634 52.0327C23.6406 54.6775 19.9105 56 15.2732 56C10.5349 56 6.80493 54.5249 4.08289 51.575Q4.01978 51.5066 3.95764 51.4373Q0 47.0249 0 39.0627Q0 33.5696 2.57068 26.5503Q5.14148 19.5312 9.45117 12.5122Q13.761 5.49316 19.3561 0L31 0Q28.4293 6.10352 27.0682 11.1389Q25.7073 16.1743 25.7073 20.2942Q25.7073 25.0244 26.9171 28.3816C27.7236 30.6194 28.5553 32.8066 29.4122 34.9429Q30.6975 38.1472 30.6975 42.5723Q30.6975 44.8452 29.9725 46.8569Q28.9454 49.707 26.4634 52.0327ZM51.2732 56C55.9105 56 59.6406 54.6775 62.4634 52.0327Q64.9454 49.707 65.9725 46.8569Q66.6975 44.8452 66.6975 42.5723C66.6975 39.6221 66.269 37.0791 65.4122 34.9429Q64.1268 31.7385 62.9171 28.3816Q61.7073 25.0244 61.7073 20.2942C61.7073 17.5476 62.161 14.4958 63.0682 11.1389Q64.4293 6.10352 67 0L55.3561 0Q49.761 5.49316 45.4512 12.5122Q41.1415 19.5312 38.5707 26.5503Q36 33.5696 36 39.0627Q36 47.0249 39.9576 51.4373Q39.9698 51.4509 39.9821 51.4644Q40.0322 51.52 40.0829 51.575Q41.1108 52.689 42.3306 53.5227Q45.9552 56 51.2732 56Z" clip-rule="evenodd" fill="#2C6269" fill-opacity="1.000000" fill-rule="evenodd"/>
</svg>
